# xmcd CD database file
#
# Track frame offsets:
#	150
#	13866
#	23254
#	36934
#	49879
#	62245
#	71668
#	89839
#	104933
#	117833
#	133215
#	152310
#	167127
#	178243
#	194812
#
# Disc length: 2872 seconds
#
# Revision: 0
# Processed by: cddbd v1.5.1PL0 Copyright (c) Steve Scherf et al.
# Submitted via: CDex 1.51
#
DISCID=e00b360f
DTITLE=Maurice Vander  - Récidive
DYEAR=2002
DGENRE=Jazz
TTITLE0=Girl Talk (Dansez sur moi)
TTITLE1=Blue Ravel
TTITLE2=Dixiland
TTITLE3=Valse à mon père
TTITLE4=La Javanaise
TTITLE5=Déambulation
TTITLE6=Berceuse de Faure
TTITLE7=A Boulou
TTITLE8=Les Deux Copines
TTITLE9=Le Blues du Moine
TTITLE10=Conception
TTITLE11=Blue Schuman
TTITLE12=L'Etude du Milles Pattes
TTITLE13=Les Sanglots Longs
TTITLE14=Le Coq et la Pendule
EXTD=YEAR: 2002
EXTT0=
EXTT1=
EXTT2=
EXTT3=
EXTT4=
EXTT5=
EXTT6=
EXTT7=
EXTT8=
EXTT9=
EXTT10=
EXTT11=
EXTT12=
EXTT13=
EXTT14=
PLAYORDER=
